<?xml version="1.0" encoding="UTF-8"?>
<svg id="Camada_2" data-name="Camada 2" xmlns="http://www.w3.org/2000/svg" viewBox="0 0 598.78 101.96">
  <defs>
    <style>
      .cls-1 {
        letter-spacing: -.07em;
      }

      .cls-2 {
        font-family: Montserrat-Medium, Montserrat;
        font-size: 87.45px;
        font-weight: 500;
      }

      .cls-2, .cls-3 {
        fill: #c60e1c;
      }

      .cls-4 {
        fill: #030349;
      }

      .cls-4, .cls-3 {
        fill-rule: evenodd;
        stroke-width: 0px;
      }
    </style>
  </defs>
  <g id="Camada_1-2" data-name="Camada 1">
    <g>
      <path class="cls-4" d="M187.7,51.34c0,5.91-1.21,10.16-3.63,12.76-2.42,2.6-5.82,3.9-10.19,3.9s-7.77-1.3-10.19-3.9c-2.42-2.6-3.63-6.85-3.63-12.76V17.14h-14.35v34.74c0,9.1,2.48,16.1,7.44,21,4.96,4.9,11.84,7.35,20.65,7.35s15.68-2.45,20.65-7.35c4.96-4.9,7.44-11.9,7.44-21V17.14h-14.18v34.2Z"/>
      <path class="cls-4" d="M259.12,47.8c-2.13-1.3-4.47-2.33-7.04-3.1-2.57-.77-5.14-1.45-7.71-2.04-2.57-.59-4.92-1.18-7.04-1.77-2.13-.59-3.84-1.37-5.14-2.35-1.3-.97-1.95-2.26-1.95-3.85,0-1.36.38-2.55,1.15-3.59.77-1.03,2.04-1.87,3.81-2.53,1.77-.65,4.05-.97,6.82-.97s5.61.4,8.51,1.2c2.89.8,5.79,2.02,8.68,3.68l4.43-10.9c-2.9-1.83-6.23-3.2-10.01-4.12-3.78-.92-7.62-1.37-11.52-1.37-5.85,0-10.71.87-14.58,2.61-3.87,1.74-6.76,4.08-8.68,7-1.92,2.92-2.88,6.16-2.88,9.7,0,3.31.66,6.03,1.99,8.15,1.33,2.13,3.06,3.84,5.18,5.14,2.13,1.3,4.47,2.36,7.04,3.19,2.57.83,5.14,1.52,7.71,2.08,2.57.56,4.92,1.15,7.04,1.77,2.13.62,3.84,1.42,5.14,2.39,1.3.97,1.95,2.29,1.95,3.94,0,1.3-.41,2.45-1.24,3.46-.83,1.01-2.11,1.79-3.85,2.35-1.74.56-4.03.84-6.87.84-3.72,0-7.4-.6-11.03-1.82-3.63-1.21-6.78-2.76-9.44-4.65l-4.87,10.81c2.78,2.13,6.44,3.85,10.99,5.18,4.55,1.33,9.3,1.99,14.27,1.99,5.91,0,10.79-.89,14.66-2.66,3.87-1.77,6.78-4.11,8.73-7,1.95-2.89,2.92-6.08,2.92-9.57,0-3.25-.66-5.94-1.99-8.06-1.33-2.13-3.06-3.84-5.18-5.14Z"/>
      <polygon class="cls-4" points="293.94 53.29 322.74 53.29 322.74 42.12 293.94 42.12 293.94 28.66 326.55 28.66 326.55 17.14 279.68 17.14 279.68 79.16 327.7 79.16 327.7 67.64 293.94 67.64 293.94 53.29"/>
      <g>
        <path class="cls-4" d="M356.73,50.45c4.43,0,7.74-.96,9.92-2.88,2.18-1.92,3.28-4.56,3.28-7.93s-1.09-6.08-3.28-7.97c-2.19-1.89-5.49-2.84-9.92-2.84h-11.7v21.62h11.7Z"/>
        <path class="cls-4" d="M426.76,59.28s.08-.03.12-.05c4.02-1.77,7.12-4.33,9.3-7.66,2.19-3.34,3.28-7.31,3.28-11.92s-1.09-8.68-3.28-12.05c-2.19-3.37-5.29-5.95-9.3-7.75-4.02-1.8-8.8-2.7-14.35-2.7h-55c5.55,0,10.34.9,14.35,2.7,4.02,1.8,7.12,4.39,9.3,7.75,2.19,3.37,3.28,7.38,3.28,12.05s-1.09,8.58-3.28,11.92c-2.19,3.34-5.29,5.89-9.3,7.66-.04.02-.08.03-.12.05l13.86,19.89h14.42v-17.28h12.49c.23,0,.44-.01.67-.01l11.91,17.29h15.51l-13.86-19.89ZM421.65,47.57c-2.19,1.92-5.49,2.88-9.92,2.88h-11.7v-21.62h11.7c4.43,0,7.74.95,9.92,2.84,2.18,1.89,3.28,4.55,3.28,7.97s-1.09,6.01-3.28,7.93Z"/>
        <path class="cls-4" d="M357.53,61.88h-12.49v17.28h25.08l-11.91-17.29c-.22,0-.44.01-.67.01Z"/>
      </g>
      <path class="cls-4" d="M120.92,36.06c.72,2.88,1.11,5.88,1.11,8.98,0,20.34-16.49,36.82-36.82,36.82-8.96,0-17.18-3.21-23.56-8.53,17.69-1.94,39.72-10.3,55.21-36.55,0,0-22.79,29.17-63.24,27.18-3.32-5.53-5.23-12-5.23-18.92,0-20.34,16.49-36.82,36.82-36.82,11.71,0,22.14,5.47,28.88,13.99l5.36-6.43C111.19,6.13,98.92,0,85.21,0c-24.88,0-45.05,20.17-45.05,45.05,0,6.35,1.32,12.38,3.69,17.86-1.01-.17-2.02-.35-3.05-.56l-8.52,8.99s7.41,2.21,18.26,2.47c8.26,9.95,20.73,16.29,34.67,16.29,24.88,0,45.05-20.17,45.05-45.05,0-5.17-.88-10.13-2.48-14.75-.24-.69-6.85,5.77-6.85,5.77Z"/>
      <text class="cls-2" transform="translate(440.77 78.97)"><tspan x="0" y="0">F</tspan><tspan class="cls-1" x="55.53" y="0">L</tspan><tspan x="101.09" y="0">Y</tspan></text>
      <path class="cls-3" d="M14.97,35.58L0,44.47s67.5,43.01,127.61-14.24c0,0-50.94,37.22-112.64,5.35Z"/>
    </g>
  </g>
</svg>