<?xml version="1.0" encoding="UTF-8"?>
<svg id="Camada_2" data-name="Camada 2" xmlns="http://www.w3.org/2000/svg" viewBox="0 0 444.24 75.65">
  <defs>
    <style>
      .cls-1 {
        letter-spacing: 0em;
      }

      .cls-2 {
        letter-spacing: -.07em;
      }

      .cls-3 {
        font-family: Montserrat-Medium, Montserrat;
        font-size: 64.88px;
        font-weight: 500;
      }

      .cls-3, .cls-4 {
        fill: #c60e1c;
      }

      .cls-4, .cls-5 {
        fill-rule: evenodd;
        stroke-width: 0px;
      }

      .cls-5 {
        fill: #fff;
      }
    </style>
  </defs>
  <g id="Camada_1-2" data-name="Camada 1">
    <g>
      <path class="cls-5" d="M139.26,38.09c0,4.38-.9,7.54-2.7,9.47-1.8,1.93-4.32,2.89-7.56,2.89s-5.76-.96-7.56-2.89c-1.8-1.93-2.7-5.08-2.7-9.47V12.71h-10.65v25.77c0,6.75,1.84,11.94,5.52,15.58,3.68,3.64,8.79,5.46,15.32,5.46s11.64-1.82,15.32-5.46c3.68-3.64,5.52-8.83,5.52-15.58V12.71h-10.52v25.38Z"/>
      <path class="cls-5" d="M192.24,35.46c-1.58-.96-3.32-1.73-5.23-2.3-1.91-.57-3.81-1.07-5.72-1.51-1.91-.44-3.65-.88-5.23-1.31-1.58-.44-2.85-1.02-3.81-1.74-.96-.72-1.45-1.68-1.45-2.86,0-1.01.28-1.9.85-2.66.57-.77,1.51-1.39,2.83-1.87,1.31-.48,3-.72,5.06-.72s4.16.3,6.31.89c2.15.59,4.29,1.5,6.44,2.73l3.29-8.09c-2.15-1.36-4.62-2.38-7.43-3.06-2.81-.68-5.65-1.02-8.55-1.02-4.34,0-7.94.65-10.81,1.94-2.87,1.29-5.02,3.02-6.44,5.19-1.42,2.17-2.14,4.57-2.14,7.2,0,2.45.49,4.47,1.48,6.05.99,1.58,2.27,2.85,3.85,3.81,1.58.96,3.32,1.75,5.23,2.37,1.91.61,3.81,1.13,5.72,1.54,1.91.42,3.65.85,5.23,1.31,1.58.46,2.85,1.05,3.81,1.77.96.72,1.45,1.7,1.45,2.93,0,.96-.31,1.82-.92,2.56-.61.75-1.57,1.33-2.86,1.74-1.29.42-2.99.62-5.09.62-2.76,0-5.49-.45-8.18-1.35-2.7-.9-5.03-2.05-7-3.45l-3.62,8.02c2.06,1.58,4.78,2.86,8.15,3.85,3.37.99,6.9,1.48,10.58,1.48,4.38,0,8.01-.66,10.88-1.97,2.87-1.31,5.03-3.05,6.48-5.19,1.45-2.15,2.17-4.51,2.17-7.1,0-2.41-.49-4.4-1.48-5.98-.99-1.58-2.27-2.85-3.85-3.81Z"/>
      <polygon class="cls-5" points="218.08 39.54 239.44 39.54 239.44 31.25 218.08 31.25 218.08 21.26 242.27 21.26 242.27 12.71 207.5 12.71 207.5 58.73 243.13 58.73 243.13 50.19 218.08 50.19 218.08 39.54"/>
      <g>
        <path class="cls-5" d="M264.66,37.43c3.29,0,5.74-.71,7.36-2.14,1.62-1.42,2.43-3.39,2.43-5.88s-.81-4.51-2.43-5.92c-1.62-1.4-4.08-2.1-7.36-2.1h-8.68v16.04h8.68Z"/>
        <path class="cls-5" d="M265.25,45.91h-9.27v12.82h18.6l-8.84-12.83c-.17,0-.33.01-.5.01Z"/>
        <path class="cls-5" d="M316.61,43.98s.06-.02.09-.04c2.98-1.31,5.28-3.21,6.9-5.69,1.62-2.48,2.43-5.42,2.43-8.84s-.81-6.44-2.43-8.94c-1.62-2.5-3.92-4.41-6.9-5.75-2.98-1.34-6.53-2.01-10.65-2.01h-40.8c4.12,0,7.67.67,10.65,2.01,2.98,1.34,5.28,3.25,6.9,5.75,1.62,2.5,2.43,5.48,2.43,8.94s-.81,6.37-2.43,8.84c-1.62,2.48-3.92,4.37-6.9,5.69-.03.01-.06.02-.09.04l10.28,14.75h10.7v-12.82h9.27c.17,0,.33,0,.5-.01l8.84,12.83h11.5l-10.28-14.75ZM312.83,35.3c-1.62,1.42-4.08,2.14-7.36,2.14h-8.68v-16.04h8.68c3.29,0,5.74.7,7.36,2.1,1.62,1.4,2.43,3.38,2.43,5.92s-.81,4.46-2.43,5.88Z"/>
      </g>
      <path class="cls-5" d="M89.71,26.76c.53,2.13.82,4.37.82,6.66,0,15.09-12.23,27.32-27.32,27.32-6.65,0-12.74-2.38-17.48-6.33,13.13-1.44,29.47-7.64,40.96-27.12,0,0-16.91,21.64-46.92,20.17-2.46-4.1-3.88-8.9-3.88-14.04,0-15.09,12.23-27.32,27.32-27.32,8.69,0,16.42,4.06,21.43,10.38l3.98-4.77c-6.13-7.17-15.23-11.72-25.4-11.72C44.76,0,29.8,14.96,29.8,33.42c0,4.71.98,9.18,2.73,13.25-.75-.13-1.5-.26-2.26-.41l-6.32,6.67s5.5,1.64,13.55,1.83c6.13,7.38,15.38,12.09,25.72,12.09,18.46,0,33.42-14.96,33.42-33.42,0-3.83-.65-7.51-1.84-10.94-.18-.51-5.08,4.28-5.08,4.28Z"/>
      <text class="cls-3" transform="translate(327.01 58.59)"><tspan x="0" y="0">F</tspan><tspan class="cls-2" x="41.2" y="0">L</tspan><tspan class="cls-1" x="75" y="0">Y</tspan></text>
      <path class="cls-4" d="M11.1,26.4L0,32.99s50.08,31.91,94.67-10.56c0,0-37.8,27.62-83.57,3.97Z"/>
    </g>
  </g>
</svg>